<svg xmlns="http://www.w3.org/2000/svg" width="30" height="30"><path d="M6 4a2 2 0 0 0-2 2v18c0 1.1.9 2 2 2h18a2 2 0 0 0 2-2V6a2 2 0 0 0-2-2H6zm8.87 4a4.51 4.51 0 0 1 3.47 1.47V8.22h1.85v8.5c0 1.38.21 5.28-5.13 5.28-5.17 0-4.82-2.82-4.82-3.12l1.9.22c.27 1.22 1.31 1.56 2.92 1.56 3.3 0 3.11-2.51 3.11-3.92 0 0-1.07 1.28-3.21 1.28-2.15 0-5.15-1.1-5.15-5C9.81 9.35 12.55 8 14.87 8zm.22 1.37c-2.16 0-3.24 1.63-3.24 3.64 0 2.02.97 3.65 3.24 3.65 2.26 0 3.24-1.63 3.24-3.65 0-2.01-1.08-3.64-3.24-3.64z"/></svg>